<?xml version="1.0" encoding="UTF-8" standalone="no"?>
<!-- Created with Inkscape (http://www.inkscape.org/) -->

<svg
   xmlns:dc="http://purl.org/dc/elements/1.1/"
   xmlns:cc="http://creativecommons.org/ns#"
   xmlns:rdf="http://www.w3.org/1999/02/22-rdf-syntax-ns#"
   xmlns:svg="http://www.w3.org/2000/svg"
   xmlns="http://www.w3.org/2000/svg"
   xmlns:sodipodi="http://sodipodi.sourceforge.net/DTD/sodipodi-0.dtd"
   xmlns:inkscape="http://www.inkscape.org/namespaces/inkscape"
   id="svg2"
   version="1.1"
   inkscape:version="0.48.1 "
   width="785"
   height="785"
   sodipodi:docname="Tiaret.svg">
  <title
     id="title2989">Reda Kerbouche</title>
  <metadata
     id="metadata8">
    <rdf:RDF>
      <cc:Work
         rdf:about="">
        <dc:format>image/svg+xml</dc:format>
        <dc:type
           rdf:resource="http://purl.org/dc/dcmitype/StillImage" />
        <dc:title>Reda Kerbouche</dc:title>
      </cc:Work>
    </rdf:RDF>
  </metadata>
  <defs
     id="defs6" />
  <sodipodi:namedview
     pagecolor="#ffffff"
     bordercolor="#666666"
     borderopacity="1"
     objecttolerance="10"
     gridtolerance="10"
     guidetolerance="10"
     inkscape:pageopacity="0"
     inkscape:pageshadow="2"
     inkscape:window-width="1280"
     inkscape:window-height="750"
     id="namedview4"
     showgrid="false"
     inkscape:zoom="0.57907295"
     inkscape:cx="365.3896"
     inkscape:cy="422.58374"
     inkscape:window-x="-8"
     inkscape:window-y="-8"
     inkscape:window-maximized="1"
     inkscape:current-layer="svg2"
     showguides="true"
     inkscape:guide-bbox="true" />
  <path
     style="fill:#ffd5d5;stroke:#000000;stroke-width:1px;stroke-linecap:butt;stroke-linejoin:miter;stroke-opacity:1;fill-opacity:1"
     d="m 335.18516,21.956238 6.14763,-6.147626 3.48365,1.229525 0.61476,8.811598 -3.68857,4.918101 -2.04921,4.9181 -3.07381,1.024605 0,2.254129 -6.96731,5.942705 -6.14763,5.327945 -2.04921,2.04921 -1.63936,2.0492 -0.81969,2.45906 -4.71318,1.43444 -0.81968,7.37715 -4.50826,-3.27873 -1.02461,-12.09033 -4.12327,-3.72374 5.14788,-5.29278 1.84429,-0.614763 0,-2.868892 -1.43445,-0.409842 0,-3.688575 c 0,0 -3.8935,0 -3.07381,0 0.81968,0 6.14762,-7.786993 6.14762,-7.786993 l 1.02461,-1.844288 -3.07381,-1.844288 -0.40985,-13.934619 5.32795,-3.483655 3.68857,-0.204921 3.07381,5.327943 5.32795,2.254129 -2.66397,0 0.81968,5.123022 2.86889,1.229525 3.48366,-1.434446 2.66397,3.073813 z"
     id="path2987"
     inkscape:connector-curvature="0"
     sodipodi:nodetypes="cccccccccccccccccccccccscccccccccccccc" />
  <path
     style="fill:#eeffaa;stroke:#000000;stroke-width:1px;stroke-linecap:butt;stroke-linejoin:miter;stroke-opacity:1;fill-opacity:1"
     d="m 307.53518,49.63326 -11.15738,-9.563465 -2.60821,4.202127 -2.46332,-2.753118 -1.44901,-5.506235 0,-3.332722 -4.63683,-4.202127 0.72451,-6.375641 -4.92663,-6.375641 -10.72267,2.173514 -3.91233,4.202127 4.05723,0.724504 1.73881,5.216434 4.05722,0.144901 0.72451,2.608217 -1.88371,3.04292 0.1449,3.477622 -2.46332,3.04292 1.30411,9.273663 -2.60822,1.1592 -2.60821,4.78173 4.34702,2.75312 -3.62252,8.83896 3.33272,-1.01431 2.89802,1.01431 2.02861,6.66544 -2.60821,4.05723 -0.4347,3.62252 2.75311,3.47762 10.28797,1.01431 12.02678,5.07153 1.30411,2.75312 3.76742,0 0.2898,-6.95524 2.75312,-7.38995 -2.75312,-2.60822 -2.31841,-12.89618 -3.04292,-1.44901 1.73881,-7.10015 z"
     id="path2991"
     inkscape:connector-curvature="0" />
  <path
     style="fill:#eeffaa;stroke:#000000;stroke-width:1px;stroke-linecap:butt;stroke-linejoin:miter;stroke-opacity:1;fill-opacity:1"
     d="m 256.24025,26.159305 11.01247,0 0.1449,-4.057226 3.18782,0.579604 1.73881,5.361334 4.34703,0.144901 0.2898,2.463316 -1.73881,3.332722 0.2898,3.622523 -2.89802,2.463316 1.73881,9.853265 -2.60821,1.0143 -2.60822,4.34703 3.91232,2.60822 -3.18782,9.27366 2.75312,-1.01431 3.18782,0.86941 2.17352,7.24505 -2.46332,3.33272 -1.01431,3.91232 -2.89802,2.60822 -0.5796,3.91232 -6.23074,4.63683 -6.08584,0.28981 -0.2898,-1.59391 -6.23074,1.0143 -2.60822,-4.20212 -5.07153,-1.30411 -7.67975,-3.47763 -2.02861,-4.63683 -1.01431,-4.63683 -4.49193,-5.21643 0.72451,-4.78173 -4.78173,-3.76742 -2.02862,-12.75129 1.30411,0 0.1449,-4.202124 3.91233,0 1.0143,-2.898018 4.20213,0.289802 -1.15921,5.79604 2.46332,0.2898 0.2898,-1.883713 8.40425,-0.144901 4.05723,-1.593911 1.73881,-4.78173 3.18782,-4.491929 0.1449,-3.04292 z"
     id="path2993"
     inkscape:connector-curvature="0" />
  <path
     style="fill:#ffd5d5;stroke:#000000;stroke-width:1px;stroke-linecap:butt;stroke-linejoin:miter;stroke-opacity:1;fill-opacity:1"
     d="m 345.49922,24.565395 11.73698,-0.579604 6.66544,6.520542 2.89802,0 0.1449,7.389948 -2.31841,0.289802 -0.43471,1.159207 3.18782,3.477623 0,4.636827 -1.59391,0.2898 0.86941,5.21644 1.44901,1.30411 0.4347,7.82465 -8.83896,1.1592 -1.88371,1.15921 3.33272,3.47762 -7.82465,0.72451 5.07154,1.15921 -0.57961,3.18782 -3.91232,1.44901 -2.46332,-2.17352 2.75312,4.78173 0,3.33273 -9.99817,-3.76743 2.17352,5.07153 3.47762,3.47763 -6.23074,0 -6.81034,-0.86941 0.5796,-2.17351 0.4347,-1.44901 0,-5.79604 -10.43287,1.15921 1.15921,-6.08584 -2.60821,-6.08584 -4.34703,-2.31842 0,-1.73881 -2.75312,-2.60822 0.7245,-2.75311 c 4.32982,-5.82879 11.24721,-10.363799 16.95341,-15.504403 l 0,-2.318415 3.47763,-1.014306 1.44901,-4.926632 z"
     id="path2995"
     inkscape:connector-curvature="0"
     sodipodi:nodetypes="ccccccccccccccccccccccccccccccccccccccccccc" />
  <path
     style="fill:#aade87;stroke:#000000;stroke-width:1px;stroke-linecap:butt;stroke-linejoin:miter;stroke-opacity:1;fill-opacity:1"
     d="m 224.56015,43.811669 -0.35355,-2.740039 -1.41422,0.265165 -0.17677,1.679378 -4.50781,0.353554 -3.44715,-3.181981 -2.38648,0.53033 0.35355,12.904694 -4.41941,3.8007 -2.12132,0 -0.35356,-1.23743 -6.18718,0.0884 -2.20971,-2.82843 -3.8007,2.82843 1.85616,1.41421 0.26516,2.20971 -1.94454,0.26516 0.44194,5.56847 1.59099,1.5026 -1.67938,2.2981 -4.33103,0.26516 -1.14905,-1.5026 -10.16466,0.26517 -6.45235,4.59619 0.35356,5.48008 -0.97228,3.71231 -3.35875,0.61872 -2.20971,2.65165 -0.26517,-3.27037 -2.74004,0 -1.41421,1.94454 -4.33103,10.6066 -4.41942,5.12653 -2.03293,9.98788 -4.59619,2.20971 -0.0884,2.91681 8.92722,9.104 7.42462,3.0936 7.15946,0.17677 1.67938,-4.24264 2.47487,0.0884 5.74525,6.0988 2.38648,8.83883 4.68458,-1.67938 10.42983,-8.66205 3.0052,-0.53033 5.48008,-3.18199 3.18198,-4.59619 1.67938,0 -0.0884,1.94454 11.22532,-0.79549 1.94454,-2.2981 3.97748,-0.0884 -0.17678,-2.91681 -5.21491,-4.33103 -0.70711,-6.62913 1.76777,-4.68458 5.12653,-0.79549 -0.0884,-3.97748 -1.76777,-0.88388 0,-5.56847 1.67938,-0.0884 c 0,0 2.2981,1.85616 2.74004,1.94455 0.44194,0.0884 0.53033,-6.0988 0.53033,-6.0988 l 1.06066,-1.76777 1.59099,0 2.47487,3.27037 0.70711,-2.20971 -2.20971,-4.86136 -0.7955,-4.94974 -4.41941,-5.12653 0.53033,-4.68458 -4.77297,-3.71231 -2.12132,-12.81631 1.59099,0 z"
     id="path2997"
     inkscape:connector-curvature="0" />
  <path
     style="fill:#eeffaa;stroke:#000000;stroke-width:1px;stroke-linecap:butt;stroke-linejoin:miter;stroke-opacity:1;fill-opacity:1"
     d="m 251.5625,92.75 6.75,-1.5 0.375,1.625 6.125,-0.1875 6.125,-4.75 0.625,-3.9375 3.1875,-2.75 2.8125,3.6875 10.0625,1 12.5,5.1875 1.1875,2.625 3.625,0 0.1875,-7 2.875,-7.5 -2.75,-2.375 -2.3125,-12.9375 -3.25,-1.4375 2,-7.3125 5.875,-5.6875 0.75,0.75 0.8125,12.25 4.125,3 1.1875,-7.5 4.375,-1.3125 2.75,3.125 0.0625,1.875 4.5,2.25 2.4375,5.875 -1,6.375 0.9375,-0.3125 0.1875,4.9375 -4.4375,0.75 -4.0625,3.875 1.1875,2.375 -0.875,3.3125 -1.875,-0.25 0.125,5.375 -1.375,0.125 0.25,7.25 -5.875,1.875 -4,2.75 -0.75,6.875 -1.125,1.375 0.25,4 1.625,3.75 5.625,5 -0.25,6.75 4.125,0.125 4.375,-3 0.625,0.5 0.125,4 1.375,2.625 2,1.5 -1.75,2.625 -1.75,3.25 -3,0.125 -0.125,-2.625 -3.875,0.25 -3.5,4.5 -3,0.125 -0.25,1.125 -5.625,0.125 -0.625,-2 -2.75,0.125 -2.625,3.875 -2.25,0.375 -1.25,-2.375 -0.5,-6.875 -14.625,-1.875 -4,-5 0.375,-3 -5.125,-1.375 0.125,-2.375 3,-2.25 -1.25,-1.875 -4.5,0.625 -11,-9 0.25,-9 -6.875,-8.25 0.25,-1.75 5.125,-2.875 -2.375,-1.625 z"
     id="path2999"
     inkscape:connector-curvature="0" />
  <path
     style="fill:#aade87;stroke:#000000;stroke-width:1px;stroke-linecap:butt;stroke-linejoin:miter;stroke-opacity:1;fill-opacity:1"
     d="m 227.625,123.5625 -0.5625,-8.1875 -5.3125,-4.25 -0.6875,-6.6875 1.75,-4.6875 L 228,98.9375 228.0625,95 l -1.75,-0.6875 -0.4375,-5.875 1.8125,0 3.1875,2 0.25,-6 1.125,-2.0625 c 0,0 0.875,-0.3125 1.375,-0.0625 0.5,0.25 2.6875,3.6875 2.6875,3.6875 L 237,83.4375 l 7.625,3.375 5.0625,1.3125 2.8125,4.25 -0.8125,0.4375 0.6875,2.0625 2.3125,1.5 -5,2.8125 -0.5625,1.75 7.125,8.3125 -0.5,8.875 11.125,9 4.6875,-0.5625 1.1875,2 -3.125,2.3125 -0.1875,2.3125 5.1875,1.3125 -0.4375,3 4.0625,5.0625 14.75,1.8125 0.4375,7 1.1875,2.0625 0,3.5 -1.1875,1.6875 -7.1875,-0.125 0.125,4.125 3.375,3.6875 -0.75,2.375 -1.5,-0.0625 0.0625,2.375 -5.25,-0.125 -0.6875,-5.75 -5.875,3.375 -1.75,2.625 -4.875,-0.6875 L 266.5625,168 263.25,170.0625 263,173 256.375,172.75 250.1875,168.875 250.5,158 l -3.5625,-3.25 -2.375,-9.3125 -5.4375,-9.0625 -6.25,-2.75 -6.375,-2.125 -2.9375,-3.75 0.125,-3.5625 2.0625,-0.875 z"
     id="path3001"
     inkscape:connector-curvature="0" />
  <path
     style="fill:#eeaaff;stroke:#000000;stroke-width:1px;stroke-linecap:butt;stroke-linejoin:miter;stroke-opacity:1;fill-opacity:1"
     d="m 225.09048,158.71652 0,-4.77297 1.32583,-2.12132 -2.82843,-4.68458 -0.61872,-5.12653 2.03293,-1.85615 -1.67938,-0.88389 0,-3.53553 0.97227,0 -0.17677,-7.42462 2.2981,2.91681 6.89429,2.47488 5.74524,2.47487 5.48008,8.92722 2.38648,9.8995 3.71231,2.91682 -0.53033,10.87176 6.36396,4.06587 6.45235,0.26516 0.26517,-3.09359 3.44714,-2.12132 2.74004,2.65165 4.41942,0.53033 1.94454,-3.09359 5.92202,-2.91682 1.06066,5.65686 4.5962,0.0884 0.35355,3.00521 c 0,0 -0.7955,1.32582 -1.23744,1.32582 -0.44194,0 -2.82842,0.26517 -2.82842,0.26517 l 0.97227,3.0052 6.09879,6.89429 -1.06066,14.67247 -1.59099,-0.0884 -3.0052,3.44715 -6.27557,0.35355 -1.67938,1.41421 -5.92202,1.67938 -8.39689,0.61872 -0.97228,1.76777 -6.8059,-0.0884 -0.17678,-5.83363 0.70711,-1.06066 3.27037,-1.76777 0,-2.82843 -3.8007,-6.98268 -3.8007,0.0884 -0.61872,4.06587 -2.91681,-0.44195 -2.12132,-2.91681 -3.44715,0.0884 -2.12132,-3.53554 -4.68458,3.00521 2.03293,-5.48008 -10.42982,-9.63433 2.56326,-2.12132 -4.24264,-5.92202 z"
     id="path3003"
     inkscape:connector-curvature="0" />
  <path
     style="fill:#eeaaff;stroke:#000000;stroke-width:1px;stroke-linecap:butt;stroke-linejoin:miter;stroke-opacity:1;fill-opacity:1"
     d="m 171,206.375 -8,-8.5 0,-6.25 -1.375,-1.125 1.25,-1.625 1.125,-0.5 -0.25,-1.75 -1.625,-1 -0.125,-2.375 1.875,-2.125 -0.75,-11.875 1.5,-0.875 0,-4 -2.5,-4.375 -1.625,-8.25 3.75,-3.875 -4,-3.25 -0.5,-6.125 6.875,0.5 -0.375,-5.875 -0.875,-0.125 0.625,-5.75 3.375,0.375 1.5,-4.625 2.5,0.125 6,6 2.375,8.75 4.25,-1.5 10.875,-8.75 2.625,-0.25 5.75,-3 3.25,-4.875 1.625,0.125 0.25,1.875 10.75,-0.625 2,-2.375 4,-0.25 0.75,5.375 -2,-0.5 -2.25,1 -0.25,3.5 1,1 -0.125,7.375 -0.75,-0.125 -0.25,3.25 2.125,1.125 -2.5,2.25 1.125,5 2.75,4.25 -1.625,2.125 0.125,14.5 4.125,5.25 -2.625,2.5 10.75,9.125 -2.375,6 5,-3.375 2,3.5 3.5,0 2.125,2.875 2.875,0.875 0.5,-4.625 3.75,0 3.875,6.875 0.25,3 -3,1.75 -1.375,1.625 0.125,0.875 -5.5,0.125 -5.375,2.25 -3.875,-0.75 -1,-1.375 -15,0.375 -4.75,-1.125 -3.5,-3.625 -5.75,0.25 -0.125,-2.375 L 203,192 l -3.5,1.25 -2.875,0.75 -1.375,5.5 -5.125,1.25 -0.125,3.375 -3,1.375 -0.75,-2.75 -3.125,0.125 -2.625,-2.875 1.125,-2.375 3.5,-2 -1.25,-8.375 -2.5,-0.75 -1.5,-4.25 -4.625,4.875 -1.625,7.625 -0.25,6.625 z"
     id="path3005"
     inkscape:connector-curvature="0" />
  <path
     style="fill:#eeaaff;stroke:#000000;stroke-width:1px;stroke-linecap:butt;stroke-linejoin:miter;stroke-opacity:1;fill-opacity:1"
     d="m 169.22904,210.77726 0.0884,-6.0988 -6.18718,-6.62913 -0.0884,-6.45234 -1.32583,-1.14905 1.06066,-1.41422 1.591,-0.79549 -0.7955,-2.03293 -1.5026,-0.70711 -0.26517,-2.56326 2.56327,-1.85616 -1.32583,-12.02081 1.85616,-0.70711 -0.35356,-4.06586 -2.2981,-4.33103 -1.67937,-8.3969 3.88908,-3.80069 -4.15425,-3.00521 -0.53033,-6.18718 6.98268,0.44194 -0.61872,-6.0988 -0.53033,0 0.44194,-5.48007 -3.62392,0 -7.24784,-3.35876 -9.19239,-9.28078 -2.12132,3.97748 -0.35355,6.27557 -4.5962,-0.44194 -2.56326,0.17677 -1.5026,-1.85615 -4.5962,-0.17678 -1.67938,3.0936 0.0884,4.06586 1.76777,3.53553 1.94454,0 5.56847,5.3033 6.27557,0.44195 0,2.47487 5.48008,5.03814 -0.0884,2.82842 3.44715,4.77297 -0.7955,4.33103 -3.27037,2.12132 -1.41421,1.76777 -2.82843,-1.23744 -0.61872,-1.5026 -3.88908,-0.0884 -1.94455,20.41771 -4.33103,4.33103 -5.48007,1.41421 1.41421,2.20971 -0.0884,3.00521 0.44194,1.94454 2.65165,0.53033 1.14905,6.01041 2.2981,0.26516 1.76777,6.62913 3.0052,1.06066 2.03293,2.47487 1.23744,3.97748 7.33623,3.09359 0.97227,1.76777 0.44195,7.68978 1.59099,3.00521 7.07106,-3.97748 9.01561,-8.04334 1.14905,-5.48008 -2.03293,-0.88388 z"
     id="path3007"
     inkscape:connector-curvature="0" />
  <path
     style="fill:#ffd5d5;stroke:#000000;stroke-width:1px;stroke-linecap:butt;stroke-linejoin:miter;stroke-opacity:1;fill-opacity:1"
     d="m 325.49964,93.04398 -1.41421,-4.33103 -2.82843,-0.44194 -1.14905,-3.00521 3.97748,-3.8007 4.59619,-0.88388 -0.26516,-4.86136 9.54594,-1.06066 0,6.01041 -1.14905,3.53553 6.8059,0.97228 6.45235,-0.0884 -3.71231,-3.53554 -2.65165,-5.39169 10.78338,4.33103 -0.44194,-3.44714 -2.20971,-4.06587 2.12132,1.32583 3.8007,-1.32583 0.53033,-3.09359 -4.68458,-1.23744 7.68978,-0.79549 -3.53553,-3.35876 1.85615,-1.5026 8.3969,-0.97227 0.17677,-5.12653 2.38649,0 0.61872,5.92202 3.0052,-0.7071 2.2981,-4.86136 2.47487,4.94974 1.5026,-1.94454 2.65166,-2.12132 1.67937,-5.83363 2.56327,0.35355 1.06066,4.24264 0.97227,-4.77297 2.47487,0.61872 3.27037,4.68458 2.03293,0 -0.53033,-5.48007 4.5962,3.71231 0.44194,7.24784 -1.76777,1.67938 c 0,0 3.44715,0.61872 2.91682,0.70711 -0.53033,0.0884 -1.32583,4.77297 -1.32583,4.77297 l 11.57887,8.22011 -0.17677,5.3033 4.41942,1.94455 -3.71232,1.32582 -4.15425,0.35356 1.23744,5.74524 -1.76777,2.12132 -5.39169,-0.44194 -0.7071,3.44714 -6.80591,0.53033 -1.14904,7.77818 -2.91682,3.71231 0.53033,3.27037 -2.65165,3.18198 -9.19239,1.32582 0.61872,2.91682 -2.91682,2.56326 -2.65165,3.62392 -6.54073,0.7955 -4.68459,3.71231 0.97228,-5.83363 -4.50781,-4.94975 -2.12132,-2.2981 -9.8995,6.0988 -6.54073,-7.95495 -2.82843,-6.0988 -0.35355,-3.71231 1.23743,-4.06586 -8.57367,-6.8059 z"
     id="path3009"
     inkscape:connector-curvature="0" />
  <path
     style="fill:#aaffee;stroke:#000000;stroke-width:1px;stroke-linecap:butt;stroke-linejoin:miter;stroke-opacity:1;fill-opacity:1"
     d="m 326.1875,151.625 -3.3125,-5.3125 3.125,-4.5625 -2.1875,-1.5 -1.625,-3 0.125,-4 -0.75,-0.1875 -4.5625,3.0625 -3.8125,0 0.1875,-6.9375 -5.6875,-4.9375 -1.6875,-3.625 -0.1875,-4.0625 1.1875,-1.6875 0.6875,-6.8125 4,-2.75 5.9375,-1.8125 -0.3125,-7.25 1.4375,-0.0625 -0.3125,-5.375 1.9375,0.25 0.625,-2.9375 3.125,0.5 1.3125,4.1875 6.4375,2.8125 8.5625,7.0625 -1.25,3.875 0.25,3.875 3.125,6.4375 6.4375,7.5625 9.8125,-6.125 6.6875,7.4375 -0.5625,5.375 0.1875,9.375 9,10.375 -6.75,2.5 -13.5,9 -6.25,3.375 -2.5,-2.75 -7.5,8.375 -7.125,0.125 -4.375,-0.25 1.625,-3.25 3.625,-5 z"
     id="path3011"
     inkscape:connector-curvature="0" />
  <path
     style="fill:#ffd5d5;stroke:#000000;stroke-width:1px;stroke-linecap:butt;stroke-linejoin:miter;stroke-opacity:1;fill-opacity:1"
     d="m 294.125,209.75 -3.5,-3.5625 -7.6875,0.8125 -0.25,-3.4375 2.125,-0.25 3.0625,-3.4375 1.875,0.125 0.875,-14.5 -6.1875,-7.0625 -0.9375,-3.125 2.8125,-0.0625 1.5,-1.4375 -0.4375,-2.75 0.0625,-2.6875 1.625,-0.0625 0.75,-1.875 -3.375,-3.875 -0.5,-4.125 7.25,0 1.5625,-1.6875 -0.3125,-3.5 2.3125,-0.125 2.875,-4.0625 L 302.3125,149 303,151.1875 308.5625,151 l 0.1875,-1.125 3.0625,-0.125 3.5,-4.4375 3.875,-0.5 0,2.8125 3.1875,0 0.5625,-1.1875 3.4375,5.25 5.125,11.4375 -3.875,5.0625 -1.5625,3.1875 -0.6875,1.5 0.1875,1.9375 1.8125,0.3125 0,4.4375 4.4375,2.1875 -8.0625,8.375 3.5,1.125 1.3125,1.4375 -4.625,4.375 -6.4375,1.6875 -6.5625,0.625 -3.375,4.875 -5.25,-0.8125 -6.9375,6.4375 z"
     id="path3013"
     inkscape:connector-curvature="0" />
  <path
     style="fill:#eeaaff;stroke:#000000;stroke-width:1px;stroke-linecap:butt;stroke-linejoin:miter;stroke-opacity:1;fill-opacity:1"
     d="m 374.20162,151.11512 -9.36916,-10.78338 0.17677,-9.72271 4.15426,-3.0936 6.27557,-0.61871 2.82843,-3.97748 3.09359,-2.03293 -0.7955,-2.91682 9.45756,-1.67938 2.56326,-3.18198 -0.53033,-2.74004 3.0052,-4.33102 0.7955,-7.86657 6.89429,-0.17677 0.7071,-3.71232 5.48008,0.35356 c 0,0 2.38649,-1.67938 2.03293,-1.76777 -0.35355,-0.0884 -1.76776,-5.92202 -1.76776,-5.92202 l 4.86136,-0.26516 3.18198,-1.06066 3.27037,0.88388 0.61871,-1.32582 2.2981,-0.0884 c 0,0 -1.41421,1.67938 -0.70711,1.67938 0.70711,0 6.01041,0 6.01041,0 l 1.76777,2.12132 4.41942,-4.68459 0.7071,-5.12652 -2.65165,-3.0052 0.0884,-6.36397 3.09359,3.53554 4.86136,-0.7955 5.03814,4.24264 -1.41422,1.50261 0.17678,5.83363 2.82843,0.79549 0.0884,3.88909 -5.56847,5.74524 -3.0052,0.97227 0.0884,2.38649 5.21491,3.97747 -8.22012,16.26346 -4.77297,8.92722 -11.13693,10.34144 0.53033,2.12132 2.47487,2.38649 -1.85615,0.0884 0.35355,4.86136 1.85616,4.24264 -1.67938,2.47488 -1.32583,0 0.97227,3.44714 1.32583,0.0884 3.18198,7.77818 -7.42462,5.48007 -11.66726,11.22532 -4.06587,-0.17677 -11.57887,-8.22012 -3.8007,-0.79549 -5.3033,-2.20971 -6.27557,-2.12132 -0.17678,-9.28078 -2.20971,-4.06586 z"
     id="path3015"
     inkscape:connector-curvature="0" />
  <path
     style="fill:#aaffee;stroke:#000000;stroke-width:1px;stroke-linecap:butt;stroke-linejoin:miter;stroke-opacity:1;fill-opacity:1"
     d="m 392.125,179.25 1,-5 -1.875,-1.375 -3.4375,-0.5 -11.8125,-4.5 0.0625,-9.375 -2.375,-3.9375 0.625,-3.625 -0.4375,0 -6.625,2.3125 -12,8.1875 -7.6875,4.25 -2.5,-2.875 -7.4375,8.6875 -7.1875,0.0625 -4.3125,-0.3125 -0.8125,1.625 0.3125,1.9375 1.8125,0.4375 0,4.5 4.375,1.9375 -8.0625,8.375 3.625,1.0625 1.4375,1.625 -3.9375,3.5625 2.9375,5.1875 5.5625,8.125 3.3125,11.5625 1.875,-4.4375 4.125,-1.375 14.0625,-12.3125 -1.28671,-12.61456 3.88909,4.94974 10.96015,-0.17677 6.71752,10.78338 4.94975,3.18198 3.18198,-3.88909 -0.70711,-4.94975 5.12652,-10.25305 0,-10.07627 z"
     id="path3017"
     inkscape:connector-curvature="0" />
  <path
     style="fill:#ffeeaa;stroke:#000000;stroke-width:1px;stroke-linecap:butt;stroke-linejoin:miter;stroke-opacity:1;fill-opacity:1"
     d="m 240.64683,210.68887 2.82843,-3.53554 5.83363,-2.47487 5.3033,-0.35355 0.26516,4.77297 6.36396,0.35355 1.50261,-2.03293 8.48528,-0.70711 6.27557,-1.5026 1.23744,-1.76777 3.97747,0 0.44194,3.35876 7.6014,-0.88388 3.35876,3.88909 1.06066,-0.0884 7.15946,-6.45235 5.12652,1.06066 3.44715,-4.94975 7.24784,-0.61872 5.92202,-1.67938 1.14905,-1.06066 2.03293,4.41942 6.27557,9.28078 3.35876,11.66726 -10.07627,7.77817 -7.6014,5.65686 -3.97748,-1.94455 -5.92202,-0.0884 -12.99308,7.42462 -1.32583,0 -1.32582,-3.0936 -1.06066,2.2981 0.7071,8.04334 -1.32582,1.67938 0.44194,2.03293 -4.50781,3.62392 1.41422,0.88389 -0.26517,3.88908 c 0,0 -1.5026,1.85616 -1.85615,1.76777 -0.35356,-0.0884 -5.56847,0.17678 -5.56847,0.17678 l -0.7071,-1.23744 -9.81111,0.26517 -0.26517,-2.12132 -4.06586,-2.74004 -6.36396,-5.48008 -0.26517,-6.45235 -2.74004,-3.35876 -6.54073,-2.56326 -6.01041,-2.74004 0.0884,-5.65685 -1.06066,-0.17678 -0.0884,-0.97227 1.5026,-1.5026 1.85616,-2.56326 -1.50261,-2.47488 0.26517,-3.8007 4.41942,0 -3.18198,-6.09879 -6.45235,0.0884 z"
     id="path3019"
     inkscape:connector-curvature="0" />
  <path
     style="fill:#ffeeaa;stroke:#000000;stroke-width:1px;stroke-linecap:butt;stroke-linejoin:miter;stroke-opacity:1;fill-opacity:1"
     d="m 217.125,214.375 0.875,-6.9375 0.875,-3.8125 0.75,0.5625 4.3125,0.875 14.9375,-0.3125 1.375,1.375 3.4375,0.625 -3.125,4.25 0.4375,0.75 6.1875,-0.0625 3.375,6.5 -4.4375,-0.25 -0.5,3.625 1.625,2.75 -1.875,2.5625 -1.5625,1.4375 0.3125,1 1.125,0.125 -0.5,5.625 12.9375,5.1875 2.625,3.625 0.1875,6.5 6.1875,5.125 4.3125,2.8125 0.5625,2.25 -1.9375,2.4375 1.4375,1.0625 0.6875,8.8125 -2.25,1.375 -0.4375,4.6875 -4.0625,15.875 -2.875,1.75 -1.75,7.6875 -7.5,-6.75 -4.8125,0.3125 -6.5625,-4.75 -2.3125,-0.0625 -2,-7.125 -10.8125,-8 -0.4375,-12.0625 -2.8125,-6.375 L 218.5,256 l -7.625,0.25 -4.25,5.125 -3.75,0 0.375,-3.625 3.125,-0.375 0.125,-3.875 4.5,-6 4.75,-2.625 -0.375,-1.625 -5.375,-2 -0.5,-7.625 0.625,-4.375 4.25,-8.5 1.5,-2.625 z"
     id="path3021"
     inkscape:connector-curvature="0" />
  <path
     style="fill:#ffeeaa;stroke:#000000;stroke-width:1px;stroke-linecap:butt;stroke-linejoin:miter;stroke-opacity:1;fill-opacity:1"
     d="m 154,230.5625 0.6875,-1.125 7.3125,-4.0625 8.9375,-8 1,-5.375 -3,-1.25 0.4375,-6.25 1.625,1.875 2.5625,-5.125 0.0625,-6.75 1.4375,-7.375 4.9375,-5.3125 1.5,4.4375 2.5,0.875 1.0625,8.4375 -3.5,2.0625 -1,2.5 2.5625,2.6875 3.1875,-0.125 0.75,2.75 2.9375,-1.375 0.0625,-3.375 5.375,-1.25 1.1875,-5.5 3.125,-0.625 3.4375,-1.4375 6.75,6.5 0.125,2.375 5.875,-0.25 3.125,3.375 -1,3.6875 -1,7.0625 -1.375,3.9375 -5.75,10.9375 -0.4375,4 0.75,7.625 5.375,2.1875 0.25,1.6875 -4.8125,2.5625 -4.5,5.75 0,4.1875 -3.0625,0.3125 -0.5,3.875 -1.25,1.75 -2.1875,-0.8125 -2.5,-1.5 -0.5625,-0.75 -2.125,5.375 -4,-2.8125 -4.6875,-0.0625 -10.4375,7.4375 -5.75,0.0625 -5,-6 0.5,-3.25 1.4375,-0.375 -0.375,-2.625 -1.6875,-1.875 -4.625,-0.3125 -5.3125,-1.8125 -8.75,-5.5 -3.0625,-10.125 2.25,-1.5 7.125,0.875 3,0.875 0.875,-3.875 z"
     id="path3023"
     inkscape:connector-curvature="0" />
  <path
     style="fill:#aade87;stroke:#000000;stroke-width:1px;stroke-linecap:butt;stroke-linejoin:miter;stroke-opacity:1;fill-opacity:1"
     d="m 127.5,198.6875 -0.875,-3.125 -0.9375,0.0625 3.875,-5.125 0.875,2.3125 2.625,0.625 1,6.1875 2.375,0.125 1.625,6.625 3.375,1 1.875,2.75 1.1875,3.8125 6.875,2.5625 1.4375,2.375 0.3125,7.5 1.6875,3 -0.75,1.375 1.8125,4.125 -1,3.75 -2.875,-0.75 -6.8125,-0.9375 -2.5,1.625 2.9375,10 8.625,5.5 5.375,1.6875 4.8125,0 1.625,2.1875 0.6875,2.875 -1.6875,0.5 -0.5,2.875 1.8125,2.625 -2.8125,1.625 -2.75,0 -1.6875,-1.6875 -1.625,0.0625 0.25,3.75 1.3125,0.875 0.3125,2.625 -1.75,0 -1.1875,2.125 0.5,1.9375 1.75,1.625 -0.125,16.3125 2.1875,5 -1.9375,5.5625 -1.3125,8.0625 3.3125,2.875 10.25,5.5 5.875,0.0625 1.4375,2.5 0.0625,4.75 5.1875,0 2.4375,-0.8125 1.6875,0.375 0.9375,2.9375 1.4375,1.375 1.875,0.625 1.0625,2.625 -5.1875,4.75 c 0,0 -3.3125,4.5 -3.625,4.5 -0.3125,0 -3.5,2.1875 -3.5,2.1875 l -3.6875,-1 -1.0625,1.1875 -1.4375,6.375 -7.25,0.0625 -9.0625,-7.375 -2.9375,-0.125 -4.8125,-2.75 L 150.6875,342.5 146,342.8125 141.3125,339 l -3.125,0 -2.0625,-1.5625 -1,-2.75 -2.5,0.5625 -1.0625,2 -3.75,-2.5 0,-3.0625 2.25,-0.5 -1,-1.6875 -3.5625,-0.0625 -0.125,-2.8125 -3.4375,-0.4375 -2.5,3.875 -9.6875,-10 -2.125,-0.75 -5.5,-4.4375 2.3125,-0.9375 -0.625,-2.5625 -6.5,-6 -0.125,-11.875 3.1875,-3.5 2.25,2.125 5.5625,1.3125 c 0,0 5.5625,0 5.875,-0.25 0.3125,-0.25 0.125,-5.5625 0.125,-5.5625 l -5.5,-4.75 0.75,-2.125 0.6875,-1.25 -3.375,-4 -6.75,-0.3125 -3.4375,-2.5 c 0,0 7.4375,-5.3125 7.4375,-5.5625 0,-0.25 0.0625,-3.875 0.0625,-3.875 l 5.6875,-4.875 0.0625,-3.3125 -5.6875,-10.75 1.3125,-2.125 -2.375,-1.75 1.375,-2.75 1,-2.5 2.75,1.25 2.4375,-0.9375 -0.25,-8.5 -3.625,-5.125 1.9375,-4.75 5.6875,-4.125 -0.6875,-2.25 -8,-6.1875 5.0625,-6.875 0.4375,4.625 1.875,-0.125 2.8125,3.8125 9,-6.125 z"
     id="path3025"
     inkscape:connector-curvature="0" />
  <path
     style="fill:#aade87;stroke:#000000;stroke-width:1px;stroke-linecap:butt;stroke-linejoin:miter;stroke-opacity:1;fill-opacity:1"
     d="m 99.18128,200.30324 6.89429,4.28683 7.5572,6.0988 0.7513,2.34229 -5.78943,4.24264 -1.90035,4.72878 3.97747,5.03813 -0.22097,8.30851 -2.16551,1.01646 -2.91682,-0.92807 -2.20971,4.99394 2.38649,1.81196 -1.37002,2.03293 5.65685,10.6508 0.0884,3.57972 -6.0104,4.86136 0.13258,3.8449 -7.46882,5.48007 3.44715,2.47488 6.89429,0.35355 3.31456,3.93328 -1.45841,3.40295 5.3475,4.77297 0.39775,4.68459 -0.57453,0.97227 -5.74524,0.22097 -5.48008,-1.28163 -2.38648,-2.12132 -3.40295,3.49134 0.22097,11.71145 6.62912,5.87783 0.83969,2.82843 -2.56326,0.92807 5.43588,4.33103 2.43068,0.83969 9.50175,9.81111 2.51907,-3.84489 3.44714,0.48613 0.13259,2.91682 3.53553,-0.0884 1.14905,1.98874 -2.38649,0.44194 0.0884,2.82843 3.53554,2.47487 1.19324,-1.90035 2.65165,-0.66291 1.01646,2.87262 1.90035,1.5026 3.22618,0 4.64039,4.02167 4.81716,-0.61872 -0.39775,3.00521 2.69585,1.54679 -1.45841,4.72878 0.88389,1.54679 0.0442,4.77298 -0.97227,1.32582 0.17677,5.92202 -2.2097,2.16551 -1.76777,-0.57452 -1.5026,-0.17678 -1.45841,1.59099 -3.13779,-0.92807 -5.61266,2.51906 -1.85615,2.69585 -3.66812,0.13258 -0.17678,-4.46361 -3.0052,0.0442 -3.57973,4.33103 -0.7071,-2.65165 -1.98874,-0.30936 -2.16552,-4.90555 -1.37002,-0.35355 -5.39169,-4.5962 -1.28163,-0.35355 0.35356,-2.47487 -3.8007,-2.2981 0,-5.21491 -1.14905,-4.06587 -3.18198,-4.59619 -3.88909,-1.59099 0.0884,-2.38649 -4.86136,-7.33623 -2.65165,-7.51301 0.61872,-1.76777 -6.717516,-5.83363 0.176777,-2.82843 -3.358757,0 -2.828427,-3.09359 -3.800699,-1.94454 -12.197592,-3.27037 -1.679379,-4.86136 -0.883883,-6.0988 -2.386486,-4.41941 0.441942,-5.74525 -3.977476,0 -6.540737,2.65166 -3.712311,0.53033 -2.740039,-1.14905 -10.871766,-0.17678 -17.942835,3.97748 -10.5182129,0.0884 1.149048,-5.48007 4.684583,-3.53554 2.1213199,-5.39169 5.480078,-7.68978 3.977475,-9.01561 6.717515,-4.06587 4.77297,-0.17677 7.159456,-7.68979 2.651651,-0.17678 0.618718,-4.59619 1.856156,-2.82843 3.447145,-1.23744 -1.414213,-2.29809 -3.535534,-2.38649 -0.883884,-4.94975 1.325825,-1.23743 -0.883883,-2.12132 1.06066,-1.94455 0.353554,-3.44714 7.601397,-4.50781 5.745243,0 -5.656854,-1.32582 0.08839,-4.41942 4.507806,-0.88388 -3.005204,-1.06066 -1.767767,0 0,-2.20971 3.623922,-2.82843 4.596194,-3.8007 6.540738,-4.24264 6.540738,-2.91681 4.949747,-0.26517 1.944544,0.26517 10.429823,6.89429 7.6014,3.18198 z"
     id="path3027"
     inkscape:connector-curvature="0" />
  <path
     style="fill:#aade87;stroke:#000000;stroke-width:1px;stroke-linecap:butt;stroke-linejoin:miter;stroke-opacity:1;fill-opacity:1"
     d="m 195.65716,346.9837 -5.92202,-2.91682 -1.94454,-2.12132 5.39169,-4.59619 -1.32583,-2.65165 -1.5026,0 -1.94454,-1.94454 -0.35356,-2.91682 -2.20971,-0.53033 -2.56326,1.41421 -4.86136,-0.44194 -0.26516,-4.59619 -1.23744,-2.47488 -5.83363,0.0884 -10.6066,-5.56846 -3.27037,-3.18198 1.23744,-7.95495 1.94454,-5.65686 -2.2981,-4.86136 0.70711,-15.99829 -2.03293,-1.85615 -0.53033,-1.76777 1.06066,-2.65165 2.03293,0.35355 -0.17678,-2.56326 -2.12132,-1.32583 0.35356,-3.62392 1.67937,-0.0884 1.85616,1.59099 2.56326,-0.26516 2.82843,-1.5026 3.09359,3.62392 5.3033,0.26516 11.04855,-7.42462 4.41941,-0.0884 4.24264,2.91681 1.85616,-6.01041 1.23744,1.67938 3.97747,1.76777 1.59099,-1.94455 3.35876,0 4.33103,-5.12652 7.42462,-0.0884 4.94975,3.35876 2.82842,6.45235 0.53033,12.19759 10.69499,7.68979 2.03294,7.24784 2.2097,0 6.80591,4.77297 4.68458,-0.17677 6.62913,5.92202 -0.0884,2.38648 1.94454,2.82843 -6.45235,9.63433 -3.97747,4.68458 0.17677,4.06586 -6.18718,3.8007 -0.53033,3.71231 -3.97748,7.51301 -9.72272,0.26517 -4.15425,7.42462 -5.48008,1.32582 -14.31891,0.70711 -3.18198,-2.65165 0,-4.24264 -2.82843,0 z"
     id="path3029"
     inkscape:connector-curvature="0" />
  <path
     style="fill:#eeaaff;stroke:#000000;stroke-width:1px;stroke-linecap:butt;stroke-linejoin:miter;stroke-opacity:1;fill-opacity:1"
     d="m 448,88.125 -5.5,6.25 -3.625,1.125 0.25,2.625 5.125,3.875 -12.75,25.125 -11.375,10.125 0.75,2.625 3.125,2.25 -2.625,-0.375 0.625,5.125 1.75,4.125 -1.5,2.25 -2,0.125 1.625,3.625 1.375,0.375 2.875,7.75 6.375,0.5 8.25,-5.75 16.875,-7.25 9.125,-1.875 11.125,-3 4.625,-4.25 -5.5,-6.75 -1.125,3.125 -4.25,-7.5 -0.5,-8.625 -2.125,-1.125 0.875,-4.375 2.125,-2.625 -1.375,-1.875 -3,0.125 -3.875,-4.75 -2.875,1 -1.5,-5.5 -3.5,-6.125 -2.25,-0.875 -2.25,-3 -1.625,-1.875 z"
     id="path3031"
     inkscape:connector-curvature="0"
     sodipodi:nodetypes="cccccccccccccccccccccccccccccccccccccccc" />
  <path
     style="fill:#aade87;stroke:#000000;stroke-width:1px;stroke-linecap:butt;stroke-linejoin:miter;stroke-opacity:1;fill-opacity:1"
     d="m 487.25032,157.03714 -9.98788,-9.01561 5.56846,-4.33103 -6.01041,-7.24784 -0.88388,3.44714 -4.41942,-7.51301 -0.17677,-8.66206 -2.82843,-1.14904 1.59099,-4.33103 2.03293,-2.65165 -1.32582,-1.85616 -3.00521,0.44194 -4.06586,-5.03813 -3.44715,0.97227 -0.79549,-4.86136 -3.53554,-6.54074 -2.47487,-0.97227 -3.71231,-5.03814 -1.85616,-4.41941 3.18198,-0.0884 0.26517,-4.06586 -0.97227,-1.14905 4.06586,-1.67938 7.6014,0.0884 1.32582,0.79549 2.56327,0.61872 1.67938,-1.76777 2.65165,0.26517 2.2097,1.41421 1.94455,-1.06066 2.65165,3.35876 1.94454,-0.17678 0.26517,-0.88388 9.72272,-0.61872 9.45755,-0.70711 10.51821,-1.06066 1.59099,0.44194 -5.03813,6.01041 3.35875,5.48008 5.12653,8.3085 3.0052,9.01562 2.38649,-0.26517 3.0052,-2.2981 4.06586,3.97748 1.67938,-0.0884 4.06587,-2.74004 4.15425,5.92202 -13.43503,4.68458 -7.6014,2.38649 -7.33623,5.92202 -6.27557,5.83363 -11.93243,10.6066 3.53553,4.50781 5.65686,3.35875 1.06066,2.12132 -1.85616,1.94455 -4.06586,0.0884 z"
     id="path3033"
     inkscape:connector-curvature="0" />
  <path
     style="fill:#aade87;stroke:#000000;stroke-width:1px;stroke-linecap:butt;stroke-linejoin:miter;stroke-opacity:1;fill-opacity:1"
     d="m 547.44278,111.34037 -11.13693,4.24264 -4.15425,-6.0988 -3.88909,2.65165 -1.85615,0.44194 -4.33103,-4.5078 -2.2981,2.47487 -2.47487,0.26517 -3.44715,-8.83884 -8.22012,-13.78858 5.30331,-6.71752 2.91681,-0.53033 2.82843,-3.97747 1.5026,0.0884 0.70711,1.67938 1.67938,-0.70711 0.44194,-1.23744 2.82842,0 2.12132,1.41422 2.2981,-1.59099 3.27037,0.0884 1.06066,-1.94454 c 0,0 -0.26516,-3.62392 0.0884,-3.62392 0.35355,0 3.8007,-3.18198 3.8007,-3.18198 l 1.5026,-5.03814 1.94454,-0.35355 1.14905,1.85615 1.76777,-3.53553 5.56846,0.0884 2.74004,-3.44715 5.03814,0.0884 -0.61872,3.8007 -2.82843,4.24264 -3.0052,0.44194 -3.18198,1.76777 -0.7955,2.74004 2.47488,3.18198 5.48008,0.7955 3.27036,-2.12132 7.95496,-0.35356 2.65165,-1.14905 2.91681,0.53033 2.20971,2.56327 -2.20971,14.23052 -7.86656,4.24264 -10.16466,-2.38649 -5.39169,2.91682 z"
     id="path3035"
     inkscape:connector-curvature="0" />
  <path
     style="fill:#eeaaff;stroke:#000000;stroke-width:1px;stroke-linecap:butt;stroke-linejoin:miter;stroke-opacity:1;fill-opacity:1"
     d="m 407.25886,193.27636 -19.26866,0.53033 1.94455,-3.35875 -0.35356,-10.6066 2.65165,-1.06066 1.23744,-4.5962 9.54594,7.42462 3.88909,-0.17677 11.49049,-10.96016 7.60139,-5.83363 6.71752,1.06066 8.13173,-6.36396 16.79378,-7.42462 19.79899,-4.77297 9.8995,9.89949 10.96015,-0.35355 1.94455,-2.2981 4.77297,0 5.83363,-1.23744 2.29809,1.23744 2.65165,9.01561 -6.36396,0.53033 -2.82842,1.59099 -6.89429,2.82843 -8.48529,-0.53033 -4.41941,3.71231 -5.12653,-0.17678 -9.19239,3.53554 -1.41421,3.71231 -4.59619,0.53033 -7.95495,0.17678 -1.94455,4.77297 -3.88909,4.77297 0,5.3033 -7.07106,2.82843 -1.23744,6.36396 -7.77817,-0.17678 -6.01041,-5.3033 -3.35876,0.17678 -4.06586,-5.65686 z"
     id="path3037"
     inkscape:connector-curvature="0" />
  <path
     style="fill:#eeaaff;stroke:#000000;stroke-width:1px;stroke-linecap:butt;stroke-linejoin:miter;stroke-opacity:1;fill-opacity:1"
     d="m 107.00365,359.80001 3.71231,-0.35355 1.14905,-0.44194 6.09879,5.12652 1.41422,0.44194 2.2097,4.94975 1.76777,0.26516 0.53033,2.47488 3.62392,-4.24264 3.35876,-0.17678 -0.26516,4.59619 3.8007,0.0884 1.85615,-2.82842 5.56847,-2.56327 2.65165,0.7955 2.03293,-1.5026 1.94454,0.35355 0.7955,0.44194 2.47487,-1.76777 0,-6.27557 0.70711,-1.41421 0,-4.50781 -0.97227,-1.76776 1.94454,-4.5962 2.47487,1.23744 2.56327,0.0884 8.75044,6.98268 6.89429,-0.17678 1.94455,-5.92202 1.06066,-1.67938 3.27037,1.41422 -6.18719,28.37266 0.44194,6.27557 -5.48007,8.66206 0.26516,3.97747 -3.53553,1.5026 -6.98268,6.62913 -5.83363,8.57367 -1.23744,16.26346 -13.08148,6.36396 -11.3137,7.24784 -29.34494,16.79379 -25.809393,13.43503 -4.772971,-5.65686 -5.126524,-11.66726 -1.944543,-5.65685 1.06066,-11.31371 2.65165,-4.41942 -1.237437,-6.36396 0.353554,-6.89429 5.3033,-1.06066 -1.237436,-6.89429 -8.308505,-10.07628 0.176777,-4.41941 5.3033,-2.65165 23.157748,-15.02602 3.53553,-3.53554 z"
     id="path3039"
     inkscape:connector-curvature="0" />
  <path
     style="fill:#eeaaff;stroke:#000000;stroke-width:1px;stroke-linecap:butt;stroke-linejoin:miter;stroke-opacity:1;fill-opacity:1"
     d="M 191.125,396.25 169,396 l 0.375,-4.25 5,-8 -1,-6.875 6.625,-28.25 4.25,-2.375 3.875,-4.5 2.625,2 5.25,2.75 5,-2.375 3.125,0 -0.375,5.25 2.5,2.125 15.125,-0.5 5.625,-1.375 3.625,-7.875 9.375,0.125 1.25,5 3.5,6.375 0.125,5.75 4.875,6 -10.125,8.75 4,14.375 4,10.125 -0.75,6.25 -24,0.125 -5.75,-2.375 -7.625,2.25 -4.25,-3 -6.375,-1.625 -4.5,-3.25 z"
     id="path3041"
     inkscape:connector-curvature="0" />
  <path
     style="fill:#eeaaff;stroke:#000000;stroke-width:1px;stroke-linecap:butt;stroke-linejoin:miter;stroke-opacity:1;fill-opacity:1"
     d="m 246.625,405 0.875,-6.875 -4.375,-10.25 -3.5,-14.125 10.25,-9.125 -5,-5.5 0,-6 -3.75,-6 L 240,342 l 4.375,-8 0,-3.375 6.5,-4 9.375,8.25 8,-0.625 c 0,0 1,11.5 1.125,12.125 0.125,0.625 5.375,7.5 5.375,7.5 l 6.75,-1 3,2.75 -0.5,10.875 3.875,2.5 -2.625,6.625 0.375,8.75 -1.5,3.5 0.375,3.125 -2.75,1.625 3,3.125 -5.625,3.625 -0.25,2.375 2.375,2.875 2.25,7.375 c 0,0 0,9.75 -0.125,10.25 -0.125,0.5 -2.875,6.5 -2.875,6.5 l -8.25,13.25 -0.25,4.5 0.875,2.875 -6.75,9.625 1.625,13.5 -6.75,8 -1.375,20.125 -9.375,12.5 0.125,-24.25 2.625,-9.75 7.375,-7.625 0.125,-6.75 -4,-11.875 -8,-22.625 0.25,-20 z"
     id="path3043"
     inkscape:connector-curvature="0" />
  <path
     style="fill:#eeffaa;stroke:#000000;stroke-width:1px;stroke-linecap:butt;stroke-linejoin:miter;stroke-opacity:1;fill-opacity:1"
     d="m 275.375,338.875 -6.875,0.625 0.125,-5.125 -8.625,0.75 -9,-8.125 -0.5,-4.5 4.375,-4.25 6.5,-9.75 -2.25,-3 0.25,-2 1.125,0.625 1.375,-7.75 3.25,-1.5 3,-14 1.125,-6.5 2.5,-1.625 -0.5,-8.375 -2.625,-1.75 3.125,-2.25 9.375,-0.125 0.875,1.625 5,-0.375 2,-1.625 0.125,-2.25 2.625,-0.5 5.625,-2.625 6.25,1.375 3,-0.375 -0.5,-1.375 2.75,0.5 7.875,5.625 3.5,1.75 0.375,1.625 4,1.375 7.25,7.75 3.125,2.25 3.875,0.625 0,-1.125 3.5,8 -5.625,9.625 -3.875,12.875 -12,7.875 -7.75,7.5 -5.375,2.5 -0.375,5.625 1.375,1.25 -2.375,6.125 -5.125,-0.75 L 296,335 l -6.25,-0.5 -1.875,-1.375 -7.25,3.25 z"
     id="path3045"
     inkscape:connector-curvature="0" />
  <path
     style="fill:#eeffaa;stroke:#000000;stroke-width:1px;stroke-linecap:butt;stroke-linejoin:miter;stroke-opacity:1;fill-opacity:1"
     d="m 373.22935,261.68895 4.06586,0.0884 4.77297,1.23744 3.18199,2.65165 0,3.62392 -4.33103,3.53554 -10.07628,7.51301 -5.48007,2.12132 -6.27558,-2.82843 -3.88908,-1.06066 -1.76777,1.5026 -2.38649,-4.06586 -8.48528,6.62912 -3.18198,-6.8059 -4.59619,-0.44194 -10.16466,-10.34144 -4.33103,-1.59099 -0.44194,-1.41421 -10.69499,-6.98268 -2.91682,-0.7955 0.61872,1.14905 -3.35876,0.53033 -6.09879,-1.32582 -5.12653,2.91681 -3.0052,-0.17677 0,-1.59099 -1.5026,-0.70711 4.68458,-3.8007 -0.44194,-1.67938 1.5026,-2.12132 -1.14905,-7.77817 1.32583,-3.18198 1.76776,3.71231 1.41422,0 4.86136,-3.35876 7.60139,-4.41942 5.74525,0 3.97747,2.47488 17.67767,-13.7002 1.85616,-4.59619 3.88909,-1.41422 14.4073,-12.28598 -1.59099,-13.34664 3.88908,5.48008 11.13693,0.0884 6.8943,11.04854 -0.35356,6.36396 -8.22011,6.62913 0.88388,8.39689 2.38648,0.7955 1.94455,3.71231 -0.7955,8.13173 3.53554,2.65165 1.23743,4.86136 -0.0884,5.83363 -3.0936,6.45235 z"
     id="path3047"
     inkscape:connector-curvature="0" />
  <path
     style="fill:#eeffaa;stroke:#000000;stroke-width:1px;stroke-linecap:butt;stroke-linejoin:miter;stroke-opacity:1;fill-opacity:1"
     d="m 405.25,300 0,-6.625 -15.875,-16.25 L 386,273 l -1.25,-3.5 0.5,-3.375 -3.5,-2.5 -4.625,-1.75 -4.625,0.625 1.75,-2.25 3,-6.125 0.25,-6.625 -1.375,-4.75 -3.375,-2.5 1.25,-8.375 -2.375,-3.375 -2.5,-0.75 -0.75,-8.625 8.375,-6.5 0.25,-6.125 5,2.5 3,-3.875 -0.75,-4.75 3.75,-7 35.375,-1.25 3.625,5.875 3,-0.375 7,5.25 7.25,-0.125 2,2.875 -4.375,4.375 1.5,7.875 3.5,4.625 9.125,2.125 5.125,0.875 3.875,0.125 0.625,10.125 16.25,14.125 -10,11.625 -6.25,-1.125 -5.25,-1.125 -9.375,7 -0.125,3.375 -3.25,1.25 -8.625,9.375 -0.125,2.875 -4,1 -0.75,3.875 -3.25,0.25 -4.5,4.125 -8.5,-1.125 -3.125,3.875 -5.25,0 -3.125,2.75 z"
     id="path3049"
     inkscape:connector-curvature="0" />
  <path
     style="fill:#eeaaff;stroke:#000000;stroke-width:1px;stroke-linecap:butt;stroke-linejoin:miter;stroke-opacity:1;fill-opacity:1"
     d="m 481.625,272.5 -3.75,0 -5.5,-7.25 -1,-4.625 10.25,-10.875 L 465.5,236 l -0.125,-10.125 -7.125,-0.375 -11.5,-2.625 -3.875,-4.75 -1.125,-8.25 4.375,-4.375 -1.875,-2.5 1.375,-5.875 6.625,-3.125 0,-5.125 4.625,-5.375 1.75,-4.75 7.875,0.125 4.625,-0.5 1.5,-3.875 9,-3.125 5.125,-0.125 4.375,-3.75 8.75,0.25 7.5,-3.25 2.5,-1 5.875,-0.125 3.5,13.125 3.625,11.625 12.5,17.5 7.625,11.5 5.625,29.875 11,21.375 1.625,13.875 10.625,9.75 5.875,4.75 -0.625,1.375 -9.125,4.25 -5.125,0.75 -14.25,4.875 -6.5,0 -8.25,-3.375 -9.875,8.5 -1.125,2 -3.375,0 -10.375,6.625 2.375,-4.75 3.5,-4.5 -0.625,-2.25 -12.25,-4 -13,-11.25 -2.625,-14.625 z"
     id="path3051"
     inkscape:connector-curvature="0" />
  <path
     style="fill:#aade87;stroke:#000000;stroke-width:1px;stroke-linecap:butt;stroke-linejoin:miter;stroke-opacity:1;fill-opacity:1"
     d="m 585.5,282.25 c -0.625,0 -7.875,0.125 -7.875,0.125 l -1.75,2.375 -4.25,-2.625 L 561,282 l -1.75,-14.125 -10.875,-21 -5.25,-29.75 -20.625,-28.875 -9.125,-33.5 -2.625,-1.375 -5.5,1.125 -5.125,0 -1.25,-1.875 -5.625,-3.375 -3.75,-4.625 18,-16.125 7.625,-6.125 L 536,115 l 11.75,-4.125 3.25,7.875 3.625,5 4.5,0.25 35.125,28 23.875,17.875 21.625,17 6.125,0 9.375,8.625 -8.25,0 -6.875,1.5 -4.375,5.125 7.5,15.75 -3.625,2.75 -5.375,0 -10,8.125 7.25,2.75 2.25,13.375 9.375,1.375 -4.25,4.875 3.875,3.875 -2.25,4.75 3.625,2.125 -7.375,10.625 -4.375,1 -4.75,6.25 -2.25,3.875 -5.875,0.875 -5,-2.625 -4.875,-10.5 -3.625,-0.75 -2.125,2.5 -3.75,1 -10,7.125 z"
     id="path3053"
     inkscape:connector-curvature="0" />
  <path
     style="fill:#ffd5d5;stroke:#000000;stroke-width:1px;stroke-linecap:butt;stroke-linejoin:miter;stroke-opacity:1;fill-opacity:1"
     d="m 683.25,230 -7.25,-12.75 -7.5,-16.75 -5,-3.5 -4.25,1.25 -2.75,-3.5 -3.25,0 -6,0.25 -7.5,1.75 -4,5.75 7.5,15.25 -4.25,2.75 -4.75,-0.5 -10.75,9 7.375,2.875 L 634,245 l 7.125,1.375 -2.375,4.375 4.25,4.75 -2.5,4.25 3.25,1.75 5.75,-1.75 2.75,-5.25 6.5,-0.5 9.5,-4.25 3.5,-5.75 -0.5,-5.5 8,-2.25 -0.75,-2 3.25,-0.75 z"
     id="path3055"
     inkscape:connector-curvature="0"
     sodipodi:nodetypes="ccccccccccccccccccccccccccccccc" />
  <path
     style="fill:#ffd5d5;stroke:#000000;stroke-width:1px;stroke-linecap:butt;stroke-linejoin:miter;stroke-opacity:1;fill-opacity:1"
     d="M 694.125,260.25 681.5,251.875 671.625,245 l -0.875,-6.375 8.5,-2 -0.875,-1.875 3.375,-1.25 2.125,-4.125 14.5,-18.125 6.5,0.625 6,-14.625 1.875,0.25 2.375,2.25 4.375,-1.625 8,-10.375 9.625,7.25 3.875,0.75 -0.25,4.875 4.375,1.875 -1.25,7.75 -1,3.25 3.125,2.75 2.5,7.5 9.75,7.5 9.125,3.5 4.75,-1.625 6.625,-1.875 -5.5,17.5 0.25,3.875 5.125,6.125 -1.125,1.625 -5.125,0.25 -7.875,7.25 -7.5,19.125 -9.5,18 -5.25,-3.625 -1.5,-7.25 -4.875,-3.5 -2.875,1.75 -4.5,-3.375 0.875,-3.875 -26,-17.75 z"
     id="path3057"
     inkscape:connector-curvature="0" />
  <path
     style="fill:#ffd5d5;stroke:#000000;stroke-width:1px;stroke-linecap:butt;stroke-linejoin:miter;stroke-opacity:1;fill-opacity:1"
     d="m 580.6768,304.73407 -3.88909,-6.54074 0.97228,-1.41421 -9.28078,-7.6014 -7.95495,-7.24784 10.87177,0.0884 4.77297,2.56327 1.41421,-2.38649 7.33623,-0.26516 5.03814,-1.23744 10.34143,-6.8059 3.71232,-0.97227 1.76776,-2.56327 4.50781,0.88389 4.24264,10.69499 5.12652,2.29809 5.65686,-0.79549 2.65165,-4.15425 4.59619,-5.92202 4.68458,-1.32583 7.07107,-10.87177 5.03814,-1.85615 3.0052,-4.94975 6.62913,-0.44194 9.45755,-4.06586 3.09359,-5.03814 21.12482,14.31891 4.06586,3.0936 10.78338,7.77817 21.92031,15.2028 -0.97227,4.06586 4.41942,2.82843 3.18198,-1.67938 4.68458,3.35876 1.67938,7.68978 4.68458,3.18198 8.75045,9.36917 5.3033,5.48007 10.51821,9.104 -2.38649,0.0884 -1.59099,1.67938 -2.03293,-0.35355 -11.84404,13.25825 -13.52341,-0.7955 -4.77297,-1.59099 -7.07107,1.94455 -11.13693,9.72272 -2.2981,6.54073 -6.01041,41.7193 -10.78338,22.8042 -6.71751,13.96536 -23.86485,8.66205 -0.88389,-7.60139 -3.71231,-12.1976 -13.6118,-12.55114 -7.6014,-7.77818 -3.35876,-0.35355 -8.3085,-7.24784 -5.83364,-5.83363 -10.07627,-25.8094 -14.84924,-28.63783 z"
     id="path3059"
     inkscape:connector-curvature="0" />
  <path
     style="fill:#eeaaff;stroke:#000000;stroke-width:1px;stroke-linecap:butt;stroke-linejoin:miter;stroke-opacity:1;fill-opacity:1"
     d="M 76.5,480.375 72.125,473 l 4,-2.5 24.125,-12.25 23.875,-13.625 14.5,-9.625 12.625,-6.125 1.875,-15.875 5.75,-9.75 6.625,-5.625 4.125,-1.625 23,0.25 2.25,0.25 4.625,3.5 6.125,1.375 4.125,2.75 -6.5,15.25 0.625,12 -4.125,7.375 -1.75,23.875 -7.5,1.375 -16.75,18.375 -3,1.75 -1.375,1.75 -1,3.125 -5.25,6.75 -10.25,16.625 -1.375,2.875 -14.625,2.875 -22.375,0.625 -6.625,-10.25 0,-12.875 -2,0.125 -18.125,9.5 z"
     id="path3061"
     inkscape:connector-curvature="0"
     sodipodi:nodetypes="ccccccccccccccccccccccccccccccccccc" />
  <path
     style="fill:#eeaaff;stroke:#000000;stroke-width:1px;stroke-linecap:butt;stroke-linejoin:miter;stroke-opacity:1;fill-opacity:1"
     d="m 274.85312,714.76761 -4.94975,4.06587 -1.76777,-4.24264 -3.0052,3.18198 -24.39518,-0.88389 -12.02082,3.00521 -4.06586,0.35355 -3.18198,-1.76777 -39.24443,1.06066 4.41942,-38.00698 7.77817,-51.26525 -52.67945,-13.6118 -13.61181,-1.76777 11.66726,-26.69328 17.14734,-25.27907 -20.32932,-12.9047 -25.98617,-11.3137 -3.88909,-0.17678 -5.83363,-9.01561 0.35355,-3.18198 6.01041,-3.35876 2.65165,-4.41942 4.41942,0 22.62742,-0.35355 14.49569,-3.18198 11.84403,-19.62221 4.77298,-6.18719 1.41421,-3.88909 0.88388,-1.23743 19.79899,-20.68288 7.77818,-1.41421 1.41421,-22.98097 4.41942,-7.95495 -1.23744,-11.84404 6.71752,-14.49569 7.42462,-2.82843 6.0104,2.2981 23.86486,0.35355 2.65165,6.54074 -0.88388,19.62222 12.02081,33.58757 0.17678,7.6014 -7.24785,6.89429 -3.0052,9.89949 -0.17678,25.27907 1.23744,-2.47487 4.59619,37.1231 3.71231,25.10229 0.35356,5.12653 -14.14214,24.2184 -7.24784,22.98097 -1.76777,14.49569 6.36396,27.40039 16.08668,32.52691 10.96016,0.53033 4.06586,6.01041 -2.12132,2.2981 z"
     id="path3063"
     inkscape:connector-curvature="0" />
  <path
     style="fill:#eeffaa;stroke:#000000;stroke-width:1px;stroke-linecap:butt;stroke-linejoin:miter;stroke-opacity:1;fill-opacity:1"
     d="m 410.375,309.125 0,-6 -5.75,-2.875 5.125,-5.125 5.125,0.125 2.75,-4.625 8.625,1.625 4.5,-4 3.125,-0.25 0.5,-3.75 4.75,-1 -0.25,-3 9,-9.75 3,-0.75 -0.125,-4 9.75,-6.875 10.75,2.25 1.625,4.5 5,6.75 3.625,-0.125 5.375,8.625 2.25,13.875 13.5,11.375 12,4 0.75,2.5 -3.75,4.375 -2.5,5.125 9.875,-6.875 4.25,-0.375 0.875,-1.75 9.75,-8.5 8.375,3.125 6.875,0 14,-4.875 5,-0.375 8.375,-4.375 3.75,5.125 19.75,35.75 14.5,28.125 9.75,25.125 13.75,12.875 3.875,0.875 5.25,5.25 10.25,9.875 6,5.375 3.375,12 0.75,7.75 0,22.25 1.25,9 2.625,4 0.25,4.875 -2.5,4.125 -50.5,6.5 -6.75,18.75 -5.25,0.625 L 601.5,522 577,531.875 570.375,500 l -7.625,-8 -17,-21 -20.25,0.25 -5.5,-4.5 -4.75,3.25 -7.75,-7.75 -5.5,0.5 -1,-2.25 -7.5,-0.25 -1.5,2.25 -6.75,-3 -2.5,-2.25 -3,-8.25 -4.5,-2.75 0.25,-6.25 -24.25,-7.75 -4.5,-6 -11.75,-16 0,-3.25 -13,-15 0.25,-4.75 -9.75,-21 -0.75,-16.25 -2.75,-24.25 1,-6.5 4.75,-4 -1.25,-4 z"
     id="path3065"
     inkscape:connector-curvature="0" />
  <path
     style="fill:#aaffee;stroke:#000000;stroke-width:1px;stroke-linecap:butt;stroke-linejoin:miter;stroke-opacity:1;fill-opacity:1"
     d="m 410.5,435.75 -21.5,-58.5 -9.25,-0.5 -6.25,3.75 -1,-1.75 -1.5,0.25 -1.25,3.5 -2.25,-2 -2.75,0.5 -5.75,4.25 -5.75,-3.25 -0.5,-16.75 -3.25,-4.5 -8.8125,-9.6875 -2.25,-3.25 0.6875,-2.4375 1.6875,-1.1875 -0.625,-5.0625 -6.375,-6.3125 -2.21406,-10.66593 -7.77818,3.18199 -0.35355,4.24264 -7.07107,0 -8.83883,7.60139 -1.59099,-1.41421 2.29809,-6.36396 -1.06066,-0.88388 1.06066,-6.01041 5.12653,-2.2981 7.95495,-8.3085 11.49049,-7.42462 4.06586,-12.72793 5.3033,-9.54594 8.66206,-7.07107 2.47487,4.5962 1.76777,-1.23744 4.24264,0.88388 5.83363,3.00521 5.83363,-2.2981 13.78858,-10.96015 1.06066,3.71231 19.79899,20.32932 -0.17677,6.18718 -0.70711,0.88388 5.83363,3.00521 0.17678,6.01041 2.82842,1.76776 1.59099,4.5962 -5.12652,3.71231 -1.41421,6.36396 4.06586,41.01219 9.72272,20.68288 -0.70711,4.59619 12.72792,14.67247 0.70711,3.71231 15.9099,21.74353 25.10229,7.95495 -0.88388,6.71751 5.12653,2.47488 1.94454,7.95495 9.19239,5.3033 1.76776,-2.82843 8.13173,0.88389 0.53033,1.94454 5.83363,0 7.24785,6.71752 5.12652,-2.65166 5.65686,4.5962 20.15254,-0.35355 16.61701,21.38998 8.66206,8.13172 5.48007,31.99659 -25.27906,22.80419 -3.53554,0.35355 -1.06066,3.53554 -5.3033,10.07627 L 537,578.25 l -9.75,1.25 -9.75,6.75 -15,1.75 -5,1.5 -0.75,-0.75 -4.5,2.5 -3.75,1.5 0.5,-2 -3.5,-0.5 1.25,4 -4.5,1 -5.25,2 -1.25,-3 -8,5.5 -28.75,-40.25 3,0 0.5,-7 4,-4 -0.25,-2.25 3.25,-1 -0.75,-5.75 -14,-37.75 -4.75,-1.25 -6.75,-5.5 -6.75,-7 -13.75,-16.5 1.25,-5.75 -4.75,-5 0.25,-3 4.25,-7 0,-4.25 z"
     id="path3067"
     inkscape:connector-curvature="0" />
  <path
     style="fill:#aaffee;stroke:#000000;stroke-width:1px;stroke-linecap:butt;stroke-linejoin:miter;stroke-opacity:1;fill-opacity:1"
     d="m 315.375,346 -8,-8.875 9,-7.875 6.875,0.375 0.75,-4.625 8.125,-3.125 1.75,10.75 6.375,6.375 1.125,5.25 -2.125,1.5 -0.875,2.25 3.25,4.125 8.125,8.75 3.375,4.5 0.375,16.75 5.75,3.125 5.5,-4.25 2.5,-0.5 2.875,2 1.125,-3.625 1.375,-0.5 1.5,2.375 5.625,-4.25 9,0.375 22,59 -7,11 0.375,3.875 -4.75,7.125 0.125,2.875 4.875,5 -1.5,5.625 13.5,16.25 7.125,7.5 6.25,5.25 5.375,1.375 13.875,38.125 0.75,5.5 -3.25,0.875 0.25,2.375 -3.875,4 -1,7.25 -2.875,-0.25 29,40 -10,7.375 -25.5,25.75 -3.75,5.5 -0.5,3.75 -5,7 -6.25,41.5 -11.5,10 -2.5,0 -14.5,8.5 -5,-20 -0.5,-37 -8.5,-14 -3.5,-8 -8.5,-11 9.5,-12.5 8.5,-26.5 6.5,-12 -7,-14 0.5,-9 -16.5,-21 -7,-9 -13,-10.5 -16,-24 -8.5,-25 2,-44 -2.5,-26 11,-4.5 -2.5,-9 -4,2.5 -6.5,-8 5,-8.5 6,-4.5 -2,-4.5 -5.5,-5.5 z"
     id="path3071"
     inkscape:connector-curvature="0" />
  <path
     style="fill:#aaffee;stroke:#000000;stroke-width:1px;stroke-linecap:butt;stroke-linejoin:miter;stroke-opacity:1;fill-opacity:1"
     d="M 383.75,689.875 383.375,652 l -8.625,-13.75 -3.25,-8.375 -9,-10.75 10.125,-12.75 8.125,-26.875 7.125,-11.125 -8,-15 0.625,-8.625 -23.25,-30 -13,-10.125 -16.125,-24.25 -8.25,-25 1.875,-43.75 -2.875,-26.125 11.375,-4.5 -2.625,-9 -4,2.125 -6.875,-7.75 5,-8.25 6.375,-4.375 -2.5,-5.375 -4.875,-5 -5.125,2.5 -7.5,-8.375 -2.375,-1.75 -4.875,-0.75 -11.375,-0.5 -1.875,-1.875 -12.375,6.125 -7.75,0.25 1.5,7 5.5,7.875 6.75,-0.625 2.875,2.5 -0.375,10.875 4.125,2.375 -2.875,6.375 0.375,8.875 -1.5,3.875 0.5,3 -2.875,1.375 3.125,3.125 -5.375,3.75 -0.125,2.5 2.375,2.75 2,7.375 -0.125,10.25 -11.375,19.25 0.125,5.125 0.75,2.75 -6.875,9.875 1.625,13.625 -6.625,7.5 -1.375,19.5 -9.25,12.875 1.375,-0.25 1.875,17.625 3.25,26.375 2.875,17 0.375,5.5 -14.25,23.75 -7.5,23.5 -1.75,14.625 6.375,26.875 16.375,32.75 10.75,0.5 4,6.25 -2,2.375 2.875,5.375 0,1.75 1.625,1.25 -0.25,4.375 -4,3.25 2.75,1.875 -2.375,3.625 2.375,2.75 2.5,9.5 1.25,7.125 2.125,0.125 2.125,6.75 6,4.875 -0.625,5.75 9,11.125 12.625,-7 11.25,-9.25 12.375,-8.875 -3.5,-1 -5.75,-10.125 -1.375,-7 -2.625,-7.625 6,-3 12.75,-4.75 9.75,-0.75 12.75,-13 7.25,-7 5.75,-2.5 8,-8 z"
     id="path3073"
     inkscape:connector-curvature="0" />
  <path
     style="fill:none;stroke:#000000;stroke-width:3;stroke-linecap:butt;stroke-linejoin:miter;stroke-opacity:1;stroke-miterlimit:4;stroke-dasharray:none"
     d="m 106.91833,359.76588 4.00726,-0.46461 0.52269,-2.2069 -3.83303,-2.4392 -0.11616,-5.16878 -0.92922,-4.23957 -3.42649,-4.70417 -4.007264,-1.39383 0.290381,-2.2069 -4.76225,-7.66606 -2.845735,-7.43376 0.696915,-1.62613 -6.562614,-5.92377 0.174229,-2.84574 -3.774955,0 -2.729582,-3.25227 -3.600726,-1.85844 -12.254084,-3.07804 -1.742287,-5.05263 -0.638838,-5.98185 -2.439201,-4.41379 0.290381,-5.92378 -3.949184,0.11615 -6.504537,2.61343 -4.007259,0.63884 -2.555354,-1.2196 -10.744102,-0.2323 -18.00363,4.06533 -10.4537203,0.0581 1.1034483,-5.6334 4.7622505,-3.31034 2.0326675,-5.51724 5.284937,-7.37568 4.181488,-9.23412 6.678766,-4.18149 4.936479,-0.0581 7.027223,-7.78221 2.729583,-0.17423 0.580762,-4.6461 1.916516,-2.6715 3.426497,-1.2196 -1.39383,-2.43921 -3.600726,-2.32304 -0.929219,-4.93648 1.335753,-1.27768 -0.813067,-2.03267 1.045372,-2.03267 0.406534,-3.54265 7.433756,-4.29764 5.284937,-0.2323 -5.168784,-1.04537 0.232305,-4.58803 4.820326,-0.87114 -3.310344,-1.16152 -1.916516,0.0581 0.05808,-2.09074 8.362977,-6.62069 6.446461,-4.35572 6.504537,-2.72958 4.704174,-0.46461 2.090744,0.29038 10.62795,6.91107 9.408348,3.94919 6.620681,4.12341 4.93648,-6.96915 0.29038,4.8784 1.91652,-0.17423 2.84574,3.71688 8.88566,-5.8657 2.6715,-1.33575 -0.69691,-3.01996 -1.04537,0 4.12341,-5.16879 -0.0581,-2.49727 -1.27767,-2.14883 5.34301,-1.39382 4.52994,-4.4138 1.85844,-20.32668 3.83303,0.0581 0.58077,1.50998 3.01996,1.27768 1.2196,-1.68421 3.4265,-2.2069 0.69691,-4.29764 -3.36842,-4.76225 0,-3.01996 -5.45916,-4.82033 0,-2.55535 -6.15608,-0.40654 -5.69147,-5.40109 -1.97459,0.11616 -1.80037,-3.60073 0.0581,-4.00726 1.62613,-3.19419 4.4138,0.0581 1.68421,2.09075 2.55535,-0.34846 4.58802,0.63884 0.40654,-6.33031 2.09074,-3.71688 -0.17423,-2.78766 4.76225,-2.26497 1.91652,-9.87296 4.6461,-5.168781 4.23956,-10.860254 1.45191,-1.800363 2.55535,-0.05808 0.40653,3.54265 2.14882,-2.787659 3.54265,-0.813067 0.87115,-3.484573 -0.52269,-5.575318 6.67877,-4.588022 10.04718,-0.348457 1.10345,1.568058 4.35572,-0.290381 1.74229,-2.264973 -1.62614,-1.451905 -0.40653,-5.691471 2.09074,-0.348457 -0.52268,-2.206896 -1.80037,-1.161525 3.89111,-2.903811 2.26497,2.787659 5.98185,-0.116153 0.46461,1.39383 2.14882,-0.174229 4.47187,-3.716879 -0.46461,-12.892922 2.38113,-0.522686 3.48457,3.136117 4.47187,-0.406534 0.29038,-1.626134 1.39383,-0.232305 0.29038,2.381125 3.89111,-0.174229 1.2196,-2.845735 3.89111,0.290381 -0.81307,5.749547 2.26497,0.232305 0.46461,-1.742287 8.47913,-0.174229 4.00726,-1.568058 1.50998,-4.878403 3.31035,-4.355717 0.17423,-3.07804 3.48457,-4.76225 10.86025,0 0,-4.00726 -1.10344,-0.05808 4.18148,-4.181488 10.62795,-2.323049 4.87841,6.62069 -0.63884,6.504537 4.58802,4.007259 0.11615,3.368421 1.39383,5.401089 2.4392,2.613431 2.55536,-4.123412 7.54991,6.446461 5.1107,-5.226861 2.03267,-0.813067 -0.34846,-2.729582 -1.4519,-0.406534 0.17423,-3.54265 -2.84574,0 0.0581,-0.348457 5.63339,-7.433757 0.92922,-1.974592 -2.72958,-1.626134 -0.40653,-14.0544464 5.34301,-3.7749546 3.54265,-0.058076 3.19419,5.3430128 4.99456,2.2068962 -2.38113,0.116152 0.87114,5.110708 2.72959,1.161525 3.54265,-1.39383 2.84573,3.019964 0.52269,1.858439 6.27223,-6.15608 3.19419,1.277677 0.69692,7.724138 11.78947,-0.754991 6.853,6.62069 2.84573,-0.116152 0,7.433756 -2.14882,0.348458 -0.58076,1.103448 3.25227,3.484574 -0.11616,4.76225 -1.80036,0.348457 1.2196,5.168784 1.39383,1.277677 -0.0581,2.381126 2.55535,0.116152 0.63884,5.923775 3.01996,-0.754991 2.32305,-4.878403 2.4392,5.052632 1.56806,-2.148821 2.55535,-1.974591 1.68421,-5.923775 2.49728,0.406533 0.92922,3.833031 1.33575,-4.123412 2.32305,0.406534 3.25227,4.588022 1.80037,0 -0.11616,-5.343013 4.29764,3.833031 0.69692,6.911071 -2.14882,2.032667 2.96189,0.348458 -1.16153,5.168784 11.55717,8.130671 -0.11615,5.401089 4.52994,1.800363 2.96189,0.754991 0.75499,-1.161524 2.09075,-0.116153 -0.87115,1.742287 6.21416,0 1.85844,1.974592 4.41379,-4.529946 0.63884,-5.343013 -2.55536,-2.903811 0.0581,-6.388385 3.25227,3.658803 4.70417,-0.871144 5.16879,4.413793 -1.56806,1.39383 0.2323,5.807622 2.55536,0.813067 0.29038,3.54265 3.6588,-0.290381 0.11615,-3.949183 -1.10344,-0.987296 4.18148,-2.032668 7.20146,0.232305 1.62613,0.813067 2.67151,0.580762 1.4519,-1.626134 2.84574,0.116152 2.03267,1.451906 2.26497,-1.103448 2.38112,3.368421 2.03267,-0.174229 0.29038,-0.754991 0.58076,-0.174228 28.86389,-2.264973 1.4519,0.232305 0.92922,-0.580763 2.78766,-0.290381 2.55536,-4.065335 1.39383,0.05808 0.98729,1.800363 1.68421,-0.696915 0.29038,-1.277677 2.4392,0 2.84574,1.393829 1.91652,-1.68421 3.36842,0.232305 1.10344,-1.974592 -0.0581,-3.600726 4.12341,-3.136116 1.39383,-5.110708 1.91652,-0.290381 1.27767,1.742287 1.68421,-3.54265 5.40109,-0.05808 2.96189,-3.136116 5.11071,-0.116153 -0.69692,4.00726 -2.84573,4.181488 -3.07804,0.46461 -3.19419,1.568058 -0.755,3.136116 2.61343,3.136116 5.11071,0.580763 3.4265,-2.148821 8.01452,-0.46461 2.72958,-1.103448 2.96189,0.580762 1.97459,2.729583 -2.14882,14.170599 -7.95644,4.123412 -10.22142,-2.323049 -5.40109,2.903811 0.52269,17.77132 0.52268,0.0581 3.1942,8.01452 3.6588,4.99455 4.47187,0.17423 33.80036,27.06352 24.74047,18.52632 22.01089,17.24864 6.03993,0 8.36298,7.72413 2.38112,0.11616 2.84574,3.54265 4.12341,-1.27768 4.99455,3.48457 7.37568,16.72596 7.49184,13.00907 3.01996,-4.12341 5.57532,-6.96915 6.21416,-7.84029 6.67876,0.69692 5.8657,-14.75136 2.09074,0.2323 2.2069,2.26497 4.6461,-1.74228 7.89837,-10.33757 9.58257,7.43375 3.83303,0.58077 -0.2323,5.1107 4.35572,1.80037 -1.27768,7.72414 -0.9873,3.13611 3.13612,2.90381 2.55535,7.54991 9.81488,7.49184 9.0599,3.31034 11.38294,-3.4265 -5.51725,17.42287 0.17423,3.89111 5.05263,6.15608 -1.27767,1.74228 -4.99456,0.0581 -7.78221,7.43376 -7.54991,18.99092 -9.46643,17.88748 7.60799,8.36298 6.21416,6.56261 10.33756,8.82759 -2.38112,0.11615 -1.68421,1.68421 -1.85844,-0.46461 -11.90563,13.29946 -13.82214,-0.81307 -4.58802,-1.62614 -6.96915,1.9746 -11.20871,9.93103 -2.2069,6.50454 -5.92377,41.58257 -17.53902,36.87841 -24.04356,8.59528 0,22.59165 1.16153,8.47913 2.78766,4.12341 0.11615,5.05263 -2.49728,4.18149 -50.29401,6.21416 -7.02722,18.87477 -5.22686,0.52269 -4.99456,5.69147 -24.85662,9.81488 0.0581,0.69691 -25.147,22.53358 -3.60073,0.52268 -1.10345,3.65881 -9.98911,19.16515 -9.58258,1.16153 -9.81488,6.56261 -14.98366,2.03267 -5.05264,1.10344 -0.69691,-0.58076 -4.52995,2.4392 -3.6588,1.62614 0.34846,-2.09075 -3.54265,-0.40653 1.2196,3.94918 -4.47187,0.92922 -5.28494,2.2069 -1.2196,-3.01996 -7.66606,5.40109 -9.87296,7.25952 -25.72776,25.84392 -3.65881,5.45917 -0.58076,3.83303 -4.8784,6.91107 -6.21416,41.40835 -11.61524,10.22141 -2.55536,-0.11615 -14.34482,8.53721 -4.6461,-19.22323 -1.16153,-0.69692 -8.01452,8.13067 -5.92377,2.43921 -19.62976,20.03629 -9.93104,0.92922 -18.8167,7.49184 2.84574,7.89836 1.27768,7.14338 5.92377,9.98911 3.07804,0.81307 -11.61524,8.47912 c 0,0 -11.61525,9.75681 -11.61525,9.52451 0,-0.23231 -13.06715,7.02722 -13.06715,7.02722 l -8.88566,-10.97641 0.75499,-5.8657 -6.098,-4.82032 -2.03267,-6.853 -2.14882,0.23231 -1.2196,-7.54991 -2.49728,-9.46643 -2.26497,-2.49727 2.26497,-3.71688 -2.90381,-1.80037 4.41379,-3.42649 0.0581,-4.18149 -1.50999,-1.45191 -0.2323,-1.97459 -4.93648,4.06534 -1.85844,-3.94919 -2.90381,3.07804 -24.50817,-0.98729 -11.84755,3.01996 -4.35571,0.29038 -3.13612,-1.85844 -39.0853,1.16153 4.87798,-42.00105 4.8458,-31.29236 2.46396,-15.68725 -35.56323,-9.28094 -17.65842,-4.43514 -13.14115,-1.8069 11.66277,-26.85723 17.49415,-25.37884 -20.69731,-12.81262 -26.0359,-11.16998 -3.77808,-0.16427 -6.07778,-9.1988 0.49279,-3.12102 5.99565,-3.28529 2.87463,-4.43514 4.27087,0.0821 -6.40631,-10.02012 -0.0821,-13.05902 -1.80691,0.0821 -18.23334,9.60947 -11.498506,-25.05032 -4.024477,-7.47403 -4.681535,-5.33859 -5.256459,-11.9913 -2.053305,-5.66712 1.067718,-11.41637 2.956759,-4.27088 -1.478379,-5.99565 0.410661,-7.06337 5.420724,-1.14985 -1.314115,-6.98123 -8.295351,-9.77373 0.492793,-5.01006 5.338592,-2.62823 22.997012,-14.61953 z"
     id="path3032"
     inkscape:connector-curvature="0" />
  <text
     xml:space="preserve"
     style="font-size:36px;font-style:normal;font-variant:normal;font-weight:300;font-stretch:normal;text-align:start;line-height:125%;letter-spacing:0px;word-spacing:0px;writing-mode:lr-tb;text-anchor:start;fill:#000000;fill-opacity:1;stroke:none;font-family:Times New Roman;-inkscape-font-specification:Times New Roman"
     x="298.75339"
     y="185.76634"
     id="text3025"
     sodipodi:linespacing="125%"><tspan
       sodipodi:role="line"
       id="tspan3027"
       x="298.75339"
       y="185.76634">1</tspan></text>
  <text
     xml:space="preserve"
     style="font-size:36px;font-style:normal;font-variant:normal;font-weight:300;font-stretch:normal;text-align:start;line-height:125%;letter-spacing:0px;word-spacing:0px;writing-mode:lr-tb;text-anchor:start;fill:#000000;fill-opacity:1;stroke:none;font-family:Times New Roman;-inkscape-font-specification:Times New Roman"
     x="335.01822"
     y="260.02295"
     id="text3029"
     sodipodi:linespacing="125%"><tspan
       sodipodi:role="line"
       id="tspan3031"
       x="335.01822"
       y="260.02295">2</tspan></text>
  <text
     xml:space="preserve"
     style="font-size:36px;font-style:normal;font-variant:normal;font-weight:300;font-stretch:normal;text-align:start;line-height:125%;letter-spacing:0px;word-spacing:0px;writing-mode:lr-tb;text-anchor:start;fill:#000000;fill-opacity:1;stroke:none;font-family:Times New Roman;-inkscape-font-specification:Times New Roman"
     x="376.46381"
     y="503.51559"
     id="text3033"
     sodipodi:linespacing="125%"><tspan
       sodipodi:role="line"
       id="tspan3035"
       x="376.46381"
       y="503.51559">3</tspan></text>
  <text
     xml:space="preserve"
     style="font-size:36px;font-style:normal;font-variant:normal;font-weight:300;font-stretch:normal;text-align:start;line-height:125%;letter-spacing:0px;word-spacing:0px;writing-mode:lr-tb;text-anchor:start;fill:#000000;fill-opacity:1;stroke:none;font-family:Times New Roman;-inkscape-font-specification:Times New Roman"
     x="198.59329"
     y="386.08655"
     id="text3037"
     sodipodi:linespacing="125%"><tspan
       sodipodi:role="line"
       id="tspan3039"
       x="198.59329"
       y="386.08655">4</tspan></text>
  <text
     xml:space="preserve"
     style="font-size:36px;font-style:normal;font-variant:normal;font-weight:300;font-stretch:normal;text-align:start;line-height:125%;letter-spacing:0px;word-spacing:0px;writing-mode:lr-tb;text-anchor:start;fill:#000000;fill-opacity:1;stroke:none;font-family:Times New Roman;-inkscape-font-specification:Times New Roman"
     x="195.13947"
     y="317.01059"
     id="text3041"
     sodipodi:linespacing="125%"><tspan
       sodipodi:role="line"
       id="tspan3043"
       x="195.13947"
       y="317.01059">5</tspan></text>
  <text
     xml:space="preserve"
     style="font-size:36px;font-style:normal;font-variant:normal;font-weight:300;font-stretch:normal;text-align:start;line-height:125%;letter-spacing:0px;word-spacing:0px;writing-mode:lr-tb;text-anchor:start;fill:#000000;fill-opacity:1;stroke:none;font-family:Times New Roman;-inkscape-font-specification:Times New Roman"
     x="331.56442"
     y="152.95528"
     id="text3045"
     sodipodi:linespacing="125%"><tspan
       sodipodi:role="line"
       id="tspan3047"
       x="331.56442"
       y="152.95528">6</tspan></text>
  <text
     xml:space="preserve"
     style="font-size:36px;font-style:normal;font-variant:normal;font-weight:300;font-stretch:normal;text-align:start;line-height:125%;letter-spacing:0px;word-spacing:0px;writing-mode:lr-tb;text-anchor:start;fill:#000000;fill-opacity:1;stroke:none;font-family:Times New Roman;-inkscape-font-specification:Times New Roman"
     x="442.08591"
     y="144.32079"
     id="text3049"
     sodipodi:linespacing="125%"><tspan
       sodipodi:role="line"
       id="tspan3051"
       x="442.08591"
       y="144.32079">7</tspan></text>
  <text
     xml:space="preserve"
     style="font-size:36px;font-style:normal;font-variant:normal;font-weight:300;font-stretch:normal;text-align:start;line-height:125%;letter-spacing:0px;word-spacing:0px;writing-mode:lr-tb;text-anchor:start;fill:#000000;fill-opacity:1;stroke:none;font-family:Times New Roman;-inkscape-font-specification:Times New Roman"
     x="481.80457"
     y="123.59801"
     id="text3053"
     sodipodi:linespacing="125%"><tspan
       sodipodi:role="line"
       id="tspan3055"
       x="481.80457"
       y="123.59801">8</tspan></text>
  <text
     xml:space="preserve"
     style="font-size:36px;font-style:normal;font-variant:normal;font-weight:300;font-stretch:normal;text-align:start;line-height:125%;letter-spacing:0px;word-spacing:0px;writing-mode:lr-tb;text-anchor:start;fill:#000000;fill-opacity:1;stroke:none;font-family:Times New Roman;-inkscape-font-specification:Times New Roman"
     x="647.58679"
     y="239.30019"
     id="text3057"
     sodipodi:linespacing="125%"><tspan
       sodipodi:role="line"
       id="tspan3059"
       x="647.58679"
       y="239.30019">9</tspan></text>
  <text
     xml:space="preserve"
     style="font-size:36px;font-style:normal;font-variant:normal;font-weight:300;font-stretch:normal;text-align:start;line-height:125%;letter-spacing:0px;word-spacing:0px;writing-mode:lr-tb;text-anchor:start;fill:#000000;fill-opacity:1;stroke:none;font-family:Times New Roman;-inkscape-font-specification:Times New Roman"
     x="224.49677"
     y="273.83813"
     id="text3061"
     sodipodi:linespacing="125%"><tspan
       sodipodi:role="line"
       id="tspan3063"
       x="224.49677"
       y="273.83813">10</tspan></text>
  <text
     xml:space="preserve"
     style="font-size:36px;font-style:normal;font-variant:normal;font-weight:300;font-stretch:normal;text-align:start;line-height:125%;letter-spacing:0px;word-spacing:0px;writing-mode:lr-tb;text-anchor:start;fill:#000000;fill-opacity:1;stroke:none;font-family:Times New Roman;-inkscape-font-specification:Times New Roman"
     x="179.59738"
     y="171.95119"
     id="text3065"
     sodipodi:linespacing="125%"><tspan
       sodipodi:role="line"
       id="tspan3067"
       x="179.59738"
       y="171.95119">11</tspan></text>
  <text
     xml:space="preserve"
     style="font-size:36px;font-style:normal;font-variant:normal;font-weight:300;font-stretch:normal;text-align:start;line-height:125%;letter-spacing:0px;word-spacing:0px;writing-mode:lr-tb;text-anchor:start;fill:#000000;fill-opacity:1;stroke:none;font-family:Times New Roman;-inkscape-font-specification:Times New Roman"
     x="174.41673"
     y="108.05592"
     id="text3069"
     sodipodi:linespacing="125%"><tspan
       sodipodi:role="line"
       id="tspan3071"
       x="174.41673"
       y="108.05592">12</tspan></text>
  <text
     xml:space="preserve"
     style="font-size:36px;font-style:normal;font-variant:normal;font-weight:300;font-stretch:normal;text-align:start;line-height:125%;letter-spacing:0px;word-spacing:0px;writing-mode:lr-tb;text-anchor:start;fill:#000000;fill-opacity:1;stroke:none;font-family:Times New Roman;-inkscape-font-specification:Times New Roman"
     x="262.48853"
     y="120.1442"
     id="text3073"
     sodipodi:linespacing="125%"><tspan
       sodipodi:role="line"
       id="tspan3075"
       x="262.48853"
       y="120.1442">13</tspan></text>
  <text
     xml:space="preserve"
     style="font-size:36px;font-style:normal;font-variant:normal;font-weight:300;font-stretch:normal;text-align:start;line-height:125%;letter-spacing:0px;word-spacing:0px;writing-mode:lr-tb;text-anchor:start;fill:#000000;fill-opacity:1;stroke:none;font-family:Times New Roman;-inkscape-font-specification:Times New Roman"
     x="323.7934"
     y="65.746925"
     id="text3077"
     sodipodi:linespacing="125%"><tspan
       sodipodi:role="line"
       id="tspan3079"
       x="323.7934"
       y="65.746925">14</tspan></text>
</svg>
